<?xml version="1.0" encoding="UTF-8" standalone="no" ?>
<!DOCTYPE svg PUBLIC "-//W3C//DTD SVG 1.1//EN" "http://www.w3.org/Graphics/SVG/1.1/DTD/svg11.dtd">
<svg xmlns="http://www.w3.org/2000/svg" xmlns:xlink="http://www.w3.org/1999/xlink" version="1.1" width="400" height="300" viewBox="0 0 400 300" xml:space="preserve">
<desc>Created with Fabric.js 3.6.6</desc>
<defs>
</defs>
<g transform="matrix(0.25 0 0 0.25 89 224)"  >
<circle style="stroke: rgb(0,0,0); stroke-width: 0.1; stroke-dasharray: none; stroke-linecap: butt; stroke-dashoffset: 0; stroke-linejoin: miter; stroke-miterlimit: 4; fill: rgb(115,163,220); fill-rule: nonzero; opacity: 1;"  cx="0" cy="0" r="200" />
</g>
<g transform="matrix(0.18 0 0 0.18 97.75 161.25)"  >
<g style="">
		<g transform="matrix(1 0 0 1 -28.34 454.27)" id="Layer_1"  >
<path style="stroke: rgb(0,0,0); stroke-width: 0.1; stroke-dasharray: none; stroke-linecap: butt; stroke-dashoffset: 0; stroke-linejoin: miter; stroke-miterlimit: 4; fill: rgb(0,42,67); fill-rule: nonzero; opacity: 1;"  transform=" translate(-471.66, -954.27)" d="M 455 932.5 c 3.4 0.3 6.3 2.6 7.6 5.7 c 1.6 3.9 6.4 9 20.3 11.1 c 24 3.6 37 0.9 37.4 12 c 0.4 11.1 -12.9 17.4 -24.5 16.5 h -63.8 c -5.5 0 -9.7 -4.8 -8.9 -10.2 c 1.1 -7.7 2.4 -18.5 3 -28.5 c 0.3 -5.1 4.8 -8.9 9.8 -8.4 L 455 932.5 z" stroke-linecap="round" />
</g>
		<g transform="matrix(1 0 0 1 -136.66 407.53)" id="Layer_1"  >
<path style="stroke: rgb(0,0,0); stroke-width: 0.1; stroke-dasharray: none; stroke-linecap: butt; stroke-dashoffset: 0; stroke-linejoin: miter; stroke-miterlimit: 4; fill: rgb(1,28,44); fill-rule: nonzero; opacity: 1;"  transform=" translate(-363.34, -907.53)" d="M 334.1 884.9 c 0 0 0 17.1 -1.3 21.4 c -1.3 4.4 -7.4 23.1 3 28.1 c 10.4 5 23.1 -3 27.1 -9.4 c 4 -6.4 32.5 -14.4 33.8 -27.1 c 1.3 -12.7 -6.4 -21.4 -14.7 -18.1 s -16.4 9.4 -19.1 2 L 334.1 884.9 z" stroke-linecap="round" />
</g>
		<g transform="matrix(1 0 0 1 -108.21 157.14)" id="Layer_1"  >
<path style="stroke: rgb(0,0,0); stroke-width: 0.1; stroke-dasharray: none; stroke-linecap: butt; stroke-dashoffset: 0; stroke-linejoin: miter; stroke-miterlimit: 4; fill: rgb(0,57,89); fill-rule: nonzero; opacity: 1;"  transform=" translate(-391.79, -657.14)" d="M 346.3 471.2 c 1.9 4.8 -1.5 174.3 -5.5 205.4 s -14.1 76.3 -12.1 208.9 c 0 0 22.1 17.1 39.2 -3 c 0 0 67.3 -331.5 78.4 -344.6 c 11.1 -13.1 32.6 -98.2 -90.7 -115.9 C 355.6 422.2 338.2 451.1 346.3 471.2 z" stroke-linecap="round" />
</g>
		<g transform="matrix(1 0 0 1 -107.55 222.69)" id="Layer_1" clip-path="url(#CLIPPATH_2)"  >
<clipPath id="CLIPPATH_2" >
	<path transform="matrix(1 0 0 1 -0.66 -65.55) translate(-391.79, -657.14)" id="SVGID_4_" d="M 346.3 471.2 c 1.9 4.8 -1.5 174.3 -5.5 205.4 s -14.1 76.3 -12.1 208.9 c 0 0 22.1 17.1 39.2 -3 c 0 0 67.3 -331.5 78.4 -344.6 c 11.1 -13.1 32.6 -98.2 -90.7 -115.9 C 355.6 422.2 338.2 451.1 346.3 471.2 z" stroke-linecap="round" />
</clipPath>
<path style="stroke: rgb(0,0,0); stroke-width: 0.1; stroke-dasharray: none; stroke-linecap: butt; stroke-dashoffset: 0; stroke-linejoin: miter; stroke-miterlimit: 4; fill: rgb(0,128,200); fill-rule: nonzero; opacity: 1;"  transform=" translate(-392.45, -722.69)" d="M 358.5 894.9 c -0.1 0 -0.2 0 -0.3 0 c -0.7 -0.2 -1.1 -0.8 -1 -1.5 c 46.3 -204.8 67.7 -340.4 67.9 -341.8 c 0.1 -0.7 0.8 -1.2 1.5 -1.1 c 0.7 0.1 1.2 0.8 1.1 1.5 c -0.2 1.3 -21.7 137.1 -68 341.9 C 359.6 894.5 359 894.9 358.5 894.9 z" stroke-linecap="round" />
</g>
		<g transform="matrix(1 0 0 1 -66.12 183.69)" id="Layer_1"  >
<path style="stroke: rgb(0,0,0); stroke-width: 0.1; stroke-dasharray: none; stroke-linecap: butt; stroke-dashoffset: 0; stroke-linejoin: miter; stroke-miterlimit: 4; fill: rgb(0,86,133); fill-rule: nonzero; opacity: 1;"  transform=" translate(-433.88, -683.69)" d="M 522.8 458.3 c 0 0 12.1 18.1 -55.8 479.1 c 0 0 -22.6 19.6 -45.2 -3 c 0 0 4.5 -385.7 -1.5 -393.3 c -6 -7.5 -110.1 -44.3 -64.8 -119 L 522.8 458.3 z" stroke-linecap="round" />
</g>
		<g transform="matrix(1 0 0 1 -21.35 197.75)" id="Layer_1" clip-path="url(#CLIPPATH_3)"  >
<clipPath id="CLIPPATH_3" >
	<path transform="matrix(1 0 0 1 -44.78 -14.06) translate(-433.88, -683.69)" id="SVGID_6_" d="M 522.8 458.3 c 0 0 12.1 18.1 -55.8 479.1 c 0 0 -22.6 19.6 -45.2 -3 c 0 0 4.5 -385.7 -1.5 -393.3 c -6 -7.5 -110.1 -44.3 -64.8 -119 L 522.8 458.3 z" stroke-linecap="round" />
</clipPath>
<path style="stroke: rgb(0,128,200); stroke-width: 1.4382; stroke-dasharray: none; stroke-linecap: round; stroke-dashoffset: 0; stroke-linejoin: round; stroke-miterlimit: 10; fill: none; fill-rule: nonzero; opacity: 1;"  transform=" translate(-478.65, -697.75)" d="M 495 452.4 c 0 0 23.6 86.6 -37.2 490.7" stroke-linecap="round" />
</g>
		<g transform="matrix(1 0 0 1 -147.7 -309)" id="Layer_1"  >
<path style="stroke: rgb(0,42,67); stroke-width: 0.9588; stroke-dasharray: none; stroke-linecap: butt; stroke-dashoffset: 0; stroke-linejoin: miter; stroke-miterlimit: 10; fill: none; fill-rule: nonzero; opacity: 1;"  transform=" translate(-352.3, -191)" d="M 352.3 191" stroke-linecap="round" />
</g>
		<g transform="matrix(1 0 0 1 -121.6 -145.3)" id="Layer_1"  >
<path style="stroke: rgb(0,42,67); stroke-width: 0.9588; stroke-dasharray: none; stroke-linecap: butt; stroke-dashoffset: 0; stroke-linejoin: miter; stroke-miterlimit: 10; fill: none; fill-rule: nonzero; opacity: 1;"  transform=" translate(-378.4, -354.7)" d="M 378.4 354.7" stroke-linecap="round" />
</g>
		<g transform="matrix(1 0 0 1 -151 -207.41)" id="Layer_1"  >
<path style="stroke: rgb(0,0,0); stroke-width: 0.1; stroke-dasharray: none; stroke-linecap: butt; stroke-dashoffset: 0; stroke-linejoin: miter; stroke-miterlimit: 4; fill: rgb(255,158,139); fill-rule: nonzero; opacity: 1;"  transform=" translate(-349, -292.59)" d="M 351.8 190.8 c 0 0 -55.6 16.1 -54.9 49.6 S 327 370.3 347.8 379 s 1.3 18.1 8.7 22.8 s 28.1 -3.3 21.4 -27.5 c 0 0 -5.4 -10 -12.7 -13.4 c -7.4 -3.3 -14.2 -88.8 -14.1 -95.1 c 0.2 -7 3 -17.1 40.6 -34.7 c 7.7 -3.6 11.3 -12.5 8.4 -20.4 c -3.1 -8.7 -8.5 -19.1 -17.5 -25.4 c -5.6 -4 -13 -4.2 -19.1 -0.9 L 351.8 190.8 z" stroke-linecap="round" />
</g>
		<g transform="matrix(1 0 0 1 -132.22 -285.15)" id="Layer_1"  >
<path style="stroke: rgb(0,0,0); stroke-width: 0.1; stroke-dasharray: none; stroke-linecap: butt; stroke-dashoffset: 0; stroke-linejoin: miter; stroke-miterlimit: 4; fill: rgb(230,230,230); fill-rule: nonzero; opacity: 1;"  transform=" translate(-367.78, -214.85)" d="M 324 212.6 c 1.9 12.1 7.9 30.8 26.5 41 c 5 2.7 11.1 2.7 16 -0.2 l 37.6 -21.9 c 4.5 -2.6 7.4 -7.4 7.6 -12.6 c 0.5 -13.5 -3.1 -38.5 -34.9 -44.5 c -4.4 -0.8 -8.9 0 -12.7 2.3 l -32.4 19.5 C 326 199.5 323 206.1 324 212.6 z" stroke-linecap="round" />
</g>
		<g transform="matrix(1 0 0 1 -62.63 -171.53)" id="Layer_1"  >
<path style="stroke: rgb(0,0,0); stroke-width: 0.1; stroke-dasharray: none; stroke-linecap: butt; stroke-dashoffset: 0; stroke-linejoin: miter; stroke-miterlimit: 4; fill: rgb(255,255,255); fill-rule: nonzero; opacity: 1;"  transform=" translate(-437.37, -328.47)" d="M 532 239.7 c 10.7 30.8 -14.1 113.8 -8 164.7 s 7.4 55.6 0.7 66.3 s -99.1 42.2 -179.5 -36.8 c 0 0 -10.7 -9.4 -1.3 -16.1 s 19.4 -103.1 14.1 -138 c -4.8 -31.2 -8.1 -79.1 7.1 -99.5 c 2.7 -3.6 5.4 -7.1 9.7 -8.3 c 0 0 16.5 -4.8 47.8 6.3 s 55.2 18.9 55.2 18.9 S 495.1 204 532 239.7" stroke-linecap="round" />
</g>
		<g transform="matrix(1 0 0 1 90.47 -167.85)" id="Layer_1"  >
<path style="stroke: rgb(0,0,0); stroke-width: 0.1; stroke-dasharray: none; stroke-linecap: butt; stroke-dashoffset: 0; stroke-linejoin: miter; stroke-miterlimit: 4; fill: rgb(255,158,139); fill-rule: nonzero; opacity: 1;"  transform=" translate(-590.47, -332.15)" d="M 479.8 264.1 c -2.1 4.2 -2.5 9.1 -1.3 13.6 c 7 27.5 36.6 134.9 70.7 142.3 c 39.2 8.5 150.2 -122.6 153.7 -136.1 s -36.7 9.5 -40.2 17.1 c -3.5 7.5 -6.5 0 -1 -7 c 5.5 -7 5 -20.1 -1 -16.6 s -12.1 22.1 -23.6 30.6 c -11.6 8.5 -51.7 34.7 -58.3 45.7 c -5.3 9 -36.1 -68.2 -47.2 -97 c -3 -7.7 -10.3 -12.7 -18.5 -12.8 C 502.3 243.8 488.1 247.3 479.8 264.1 z" stroke-linecap="round" />
</g>
		<g transform="matrix(1 0 0 1 11.92 -221.82)" id="Layer_1"  >
<path style="stroke: rgb(0,0,0); stroke-width: 0.1; stroke-dasharray: none; stroke-linecap: butt; stroke-dashoffset: 0; stroke-linejoin: miter; stroke-miterlimit: 4; fill: rgb(230,230,230); fill-rule: nonzero; opacity: 1;"  transform=" translate(-511.92, -278.18)" d="M 502.2 321.4 c 12.2 0.3 31.7 -2.3 45.1 -18.6 c 3.6 -4.4 4.6 -10.4 2.7 -15.8 L 535.2 246 c -2.4 -6.8 -5.9 -8.6 -11 -9.7 c -13.2 -2.9 -38.4 -3.9 -50.1 26.3 c -1.6 4.1 -1.6 8.8 0 12.9 l 13.3 35.3 C 489.7 317 495.6 321.2 502.2 321.4 z" stroke-linecap="round" />
</g>
		<g transform="matrix(1 0 0 1 -62.77 -399.49)" id="Layer_1"  >
<path style="stroke: rgb(0,0,0); stroke-width: 0.1; stroke-dasharray: none; stroke-linecap: butt; stroke-dashoffset: 0; stroke-linejoin: miter; stroke-miterlimit: 4; fill: rgb(25,5,45); fill-rule: nonzero; opacity: 1;"  transform=" translate(-437.23, -100.51)" d="M 425.8 167.7 c 0 0 -17.8 -25.6 -36.3 -32 s -16.2 -34.6 -2.9 -37.5 s -4 -27.7 22.5 -35.8 c 26.6 -8.1 4 -28.3 41 -23.7 s 11.5 -23.7 35.8 -15 c 24.2 8.7 8.4 57.8 -7.9 61.2 l 0.4 53.1 l -38.7 41 L 425.8 167.7 z" stroke-linecap="round" />
</g>
		<g transform="matrix(1 0 0 1 -58.41 -324.84)" id="Layer_1"  >
<path style="stroke: rgb(0,0,0); stroke-width: 0.1; stroke-dasharray: none; stroke-linecap: butt; stroke-dashoffset: 0; stroke-linejoin: miter; stroke-miterlimit: 4; fill: rgb(255,158,139); fill-rule: nonzero; opacity: 1;"  transform=" translate(-441.59, -175.16)" d="M 472 168.7 c 0 0 -10 4 -7 16.1 c 3 12.1 15.1 10.7 14.7 15.7 c -0.3 5 -18.4 10 -56.3 -3.3 s -12.1 -21.4 -1 -18.8 c 0 0 2 -2.7 3.3 -10.7 c 0 0 17.3 7.1 26.4 -23.1 l 13.8 2.3 L 472 168.7 z" stroke-linecap="round" />
</g>
		<g transform="matrix(1 0 0 1 -28.37 -373.35)" id="Layer_1"  >
<path style="stroke: rgb(0,0,0); stroke-width: 0.1; stroke-dasharray: none; stroke-linecap: butt; stroke-dashoffset: 0; stroke-linejoin: miter; stroke-miterlimit: 4; fill: rgb(255,158,139); fill-rule: nonzero; opacity: 1;"  transform=" translate(-471.63, -126.65)" d="M 478 84.9 c 1.6 -1.2 3.9 -0.6 4.7 1.3 c 6 15.3 30.1 81.4 -6.8 82.8 c 0 0 -13.2 1.3 -16.2 -19.1 c 0 0 -15.4 -7.5 -11.9 -18.6 c 3.5 -11.1 15.1 -8.5 19.1 -2 s 9 -1 4.5 -15.1 C 467.5 102.2 471.7 89.9 478 84.9 z" stroke-linecap="round" />
</g>
		<g transform="matrix(1 0 0 1 8.8 -116.9)" id="Layer_1"  >
<path style="stroke: rgb(0,0,0); stroke-width: 0.1; stroke-dasharray: none; stroke-linecap: butt; stroke-dashoffset: 0; stroke-linejoin: miter; stroke-miterlimit: 4; fill: rgb(230,230,230); fill-rule: nonzero; opacity: 1;"  transform=" translate(-508.8, -383.1)" d="M 522.9 395.4 c -3.3 -6 -22.7 -42.6 -34.4 -82.2 c 0 0 4 109.7 40.6 139.8 l -5.7 -55.8 C 523.4 396.6 523.2 396 522.9 395.4 z" stroke-linecap="round" />
</g>
</g>
</g>
<g transform="matrix(0.06 0 0 0.06 129 87)"  >
<g style=""   >
		<g transform="matrix(1 0 0 1 -30.95 334.5)" id="XMLID_521_"  >
<path style="stroke: rgb(0,0,0); stroke-width: 0.1; stroke-dasharray: none; stroke-linecap: butt; stroke-dashoffset: 0; stroke-linejoin: miter; stroke-miterlimit: 4; fill: rgb(150,199,251); fill-rule: nonzero; opacity: 1;"  transform=" translate(-469.05, -834.5)" d="M 574.4 904.9 c -57.6 34.4 -153 34.4 -210.6 0 c -4.1 -2.5 -8 -5.1 -11.5 -7.8 c -0.1 -0.1 -0.1 -0.1 -0.1 -0.1 c -42.4 -32.9 -37.4 -81.2 13.4 -110.5 l 66.4 -38.3 c 11.9 -6.8 25 -10.1 38.3 -9.9 c 12.4 0.2 24.8 3.5 35.9 10 l 66.3 38.3 C 627.5 818.3 628.8 872.3 574.4 904.9 z" stroke-linecap="round" />
</g>
		<g transform="matrix(1 0 0 1 -16.66 334.5)" id="XMLID_507_"  >
<path style="stroke: rgb(0,0,0); stroke-width: 0.1; stroke-dasharray: none; stroke-linecap: butt; stroke-dashoffset: 0; stroke-linejoin: miter; stroke-miterlimit: 4; fill: rgb(131,181,226); fill-rule: nonzero; opacity: 1;"  transform=" translate(-483.34, -834.5)" d="M 574.4 904.9 c -57.6 34.4 -153 34.4 -210.6 0 c -4.1 -2.5 -8 -5.1 -11.5 -7.8 c -0.1 -0.1 -0.1 -0.1 -0.1 -0.1 c 109.3 53.7 197.4 -33 181.7 -76.8 c -15.8 -43.8 -60.7 -59.7 -60.7 -59.7 l -2.9 -22.2 c 12.4 0.2 24.8 3.5 35.9 10 l 66.3 38.3 C 627.5 818.3 628.8 872.3 574.4 904.9 z" stroke-linecap="round" />
</g>
		<g transform="matrix(1 0 0 1 -30.95 -149.11)" id="XMLID_494_"  >
<path style="stroke: rgb(0,0,0); stroke-width: 0.1; stroke-dasharray: none; stroke-linecap: butt; stroke-dashoffset: 0; stroke-linejoin: miter; stroke-miterlimit: 4; fill: rgb(150,199,251); fill-rule: nonzero; opacity: 1;"  transform=" translate(-469.05, -350.89)" d="M 223.9 613.1 c -4.4 0 -8.8 -1.7 -12.2 -5 c -6.7 -6.7 -6.7 -17.7 0 -24.4 L 702 93.7 c 6.7 -6.7 17.6 -6.7 24.4 0 c 6.7 6.7 6.7 17.7 0 24.4 L 236.1 608 C 232.7 611.4 228.3 613.1 223.9 613.1 z" stroke-linecap="round" />
</g>
		<g transform="matrix(1 0 0 1 -30.95 106.9)" id="XMLID_499_"  >
<path style="stroke: rgb(0,0,0); stroke-width: 0.1; stroke-dasharray: none; stroke-linecap: butt; stroke-dashoffset: 0; stroke-linejoin: miter; stroke-miterlimit: 4; fill: rgb(221,167,76); fill-rule: nonzero; opacity: 1;"  transform=" translate(-469.05, -606.9)" d="M 437.7 588.8 c -17.3 10 -17.3 26.2 0 36.2 c 17.3 10 45.4 10 62.7 0 c 17.3 -10 17.3 -26.2 0 -36.2 C 483 578.8 455 578.8 437.7 588.8 z" stroke-linecap="round" />
</g>
		<g transform="matrix(1 0 0 1 -30.95 228.9)" id="XMLID_496_"  >
<path style="stroke: rgb(0,0,0); stroke-width: 0.1; stroke-dasharray: none; stroke-linecap: butt; stroke-dashoffset: 0; stroke-linejoin: miter; stroke-miterlimit: 4; fill: rgb(115,163,220); fill-rule: nonzero; opacity: 1;"  transform=" translate(-469.05, -728.9)" d="M 491.2 769.1 c 0 18 -44.3 18 -44.3 0 v -93.9 h 44.3 V 769.1 z" stroke-linecap="round" />
</g>
		<g transform="matrix(1 0 0 1 -31 -149.15)" id="XMLID_515_"  >
<path style="stroke: rgb(0,0,0); stroke-width: 0.1; stroke-dasharray: none; stroke-linecap: butt; stroke-dashoffset: 0; stroke-linejoin: miter; stroke-miterlimit: 4; fill: rgb(57,82,151); fill-rule: nonzero; opacity: 1;"  transform=" translate(-469, -350.85)" d="M 750.7 350.9 c 0 155.5 -126.1 281.6 -281.7 281.6 c -95.8 0 -180.6 -47.9 -231.4 -121 c -31.7 -45.6 -50.3 -100.9 -50.3 -160.6 c 0 -155.5 126.1 -281.7 281.7 -281.7 c 59.7 0 115.2 18.6 160.8 50.4 C 702.8 170.5 750.7 255.1 750.7 350.9 z" stroke-linecap="round" />
</g>
		<g transform="matrix(1 0 0 1 57.05 -350.61)" id="XMLID_64_"  >
<path style="stroke: rgb(0,0,0); stroke-width: 0.1; stroke-dasharray: none; stroke-linecap: butt; stroke-dashoffset: 0; stroke-linejoin: miter; stroke-miterlimit: 4; fill: rgb(19,176,191); fill-rule: nonzero; opacity: 1;"  transform=" translate(-557.05, -149.39)" d="M 527 115.2 c -12 -4.6 -29.1 -6.5 -20.7 4.8 c 8.4 11.2 15.2 14.7 11.8 23.6 c -3.4 8.8 -12.9 15.8 -12.6 23.2 c 0.3 7.4 2.1 16.5 7.5 16.3 c 5.4 -0.3 23.4 -9.2 30.3 -5.7 c 6.9 3.5 30.6 14.3 37.3 7.7 c 6.7 -6.5 10 -4.5 19.3 -11 c 9.3 -6.5 13.7 -18.3 6.7 -21.2 c -7 -2.9 -9.2 -0.2 -20.7 -5.8 c -11.5 -5.6 -13.8 -15.6 -26.2 -18.2 C 547.4 126.3 535.9 118.6 527 115.2 z" stroke-linecap="round" />
</g>
		<g transform="matrix(1 0 0 1 -131.68 -203.16)" id="XMLID_60_"  >
<path style="stroke: rgb(0,0,0); stroke-width: 0.1; stroke-dasharray: none; stroke-linecap: butt; stroke-dashoffset: 0; stroke-linejoin: miter; stroke-miterlimit: 4; fill: rgb(19,176,191); fill-rule: nonzero; opacity: 1;"  transform=" translate(-368.32, -296.84)" d="M 481.3 100.5 c -16.5 1.8 -49.4 1.3 -61.2 -7.6 c -5.8 -4.5 -12.6 -10.2 -20.3 -15.1 c -65.1 16.5 -123.2 56 -162.3 112.2 c 0.6 8.1 2.1 16 4.5 23 c 5.5 16.3 15.6 22.1 27.7 29.9 c 12.1 7.8 5.1 13.5 8.4 23.8 c 3.4 10.3 4.3 15.9 10 23 c 5.7 7.1 -7.4 10.9 -13.7 18.2 c -6.3 7.3 -9 11.7 -9.8 31.3 c -0.9 19.6 11.1 40.6 13.6 49.3 c 2.5 8.7 -9.4 12.9 -12.7 27.8 c -3.3 14.8 -18.9 51.6 -13.8 77.7 c 5 26.2 14 26.9 18.6 12.5 c 4.5 -14.5 5.3 -29.6 17.7 -36.8 c 12.3 -7.3 27.7 2.1 41 -14.9 c 13.3 -17 16.5 -14.7 28.1 -17.7 c 11.5 -3 9.8 -10.2 24 -21.8 c 14.2 -11.6 22.3 -24.6 12.5 -35.6 c -9.8 -11 -18.2 -13.7 -22.9 -32.4 c -4.7 -18.7 -15.5 -39.3 -27.4 -53.6 c -11.9 -14.3 -40.1 -13.9 -48.6 -20.6 c -8.5 -6.7 -7.3 -27.4 -3.8 -34.3 c 3.5 -6.8 -3 -11.5 -10.6 -12.6 c -7.6 -1.1 -9.7 -7 -7.9 -17.1 c 1.8 -10 20.9 -16 33 -12.2 c 12 3.8 16.2 11.7 12.5 27.8 c -3.7 16.1 3.3 27.5 13 34.5 c 9.7 7 7.5 -6.9 2.9 -17.7 c -4.6 -10.7 -2.3 -17.9 10.2 -32.5 c 12.5 -14.6 26.2 -7.6 43.1 -19 c 16.8 -11.4 14.2 1.2 24.2 7 c 10.1 5.8 10.8 -0.6 18.6 -8.7 c 7.9 -8.1 18.1 5.7 32.4 2.2 c 14.3 -3.4 -4 -25.1 1.8 -35.2 c 5.8 -10.1 16.3 -5.4 16.8 -23.8 c 0.5 -18.4 8.9 -15.7 15.5 -20 C 502.9 107.5 497.8 98.7 481.3 100.5 z M 449.8 133.3 c -6.7 6.5 -9.1 3.8 -18.4 10.1 c -9.3 6.4 -20.2 7.5 -26.4 5.9 c -6.1 -1.6 -11.6 -15.9 -9.5 -22.5 c 2.1 -6.6 12.1 -4.8 23.1 -2 c 11 2.8 21.8 1.9 34.3 -1.8 C 462.9 120.2 456.5 126.8 449.8 133.3 z" stroke-linecap="round" />
</g>
		<g transform="matrix(1 0 0 1 121.26 -98.21)" id="XMLID_59_"  >
<path style="stroke: rgb(0,0,0); stroke-width: 0.1; stroke-dasharray: none; stroke-linecap: butt; stroke-dashoffset: 0; stroke-linejoin: miter; stroke-miterlimit: 4; fill: rgb(19,176,191); fill-rule: nonzero; opacity: 1;"  transform=" translate(-621.26, -401.79)" d="M 737.6 435.4 l -0.2 0.8 c -4.9 0.1 -10.1 1.6 -14.5 6.1 c -11.8 12.2 -10.3 5.4 -28.2 9.7 c -17.9 4.3 -15.7 14.2 -18.9 24.5 c -3.2 10.3 -23.9 15 -33.3 15.4 c -9.4 0.4 -22 21.6 -23.8 33.6 c -1.8 12 -16.8 11.3 -28.8 18.1 c -12.1 6.8 -23.4 21.8 -31.9 27.7 c -8.5 6 -20.1 6.9 -28.9 1.5 c -8.9 -5.5 -11.4 -24.8 -11.1 -40.6 c 0.3 -15.8 4.6 -31.6 13.6 -45.4 c 8.9 -13.7 7.1 -12.3 12.9 -37 c 5.8 -24.7 -7.9 -38.2 -16 -44.1 c -8.1 -5.9 -25.1 -6.6 -31.2 -14.5 c -6.1 -7.9 -6.9 -16.1 -3.3 -40.1 c 3.6 -24.1 16.4 -24.7 29.6 -33.1 c 13.2 -8.4 34.9 -14.2 51.5 -12.3 c 16.6 1.9 25.3 9.9 32.7 18.2 c 7.3 8.3 7.5 20.2 13.8 23.6 c 6.2 3.3 13.2 2.2 19.3 6 c 6 3.9 9.1 8.8 16 10.3 c 6.8 1.5 5.7 -7.5 6.4 -11.9 c 0.7 -4.4 -5.5 -5.7 -13.1 -8.8 c -7.6 -3.1 -8.7 -6 -9.4 -12.2 c -0.7 -6.2 -6.9 -3.5 -9.7 -7 c -2.8 -3.6 -5.9 6.1 -7.7 9.6 c -1.8 3.5 -2 -4 -2 -4 s -5.1 3.7 -5.6 0.9 c -0.4 -2.8 4.9 -7.1 6.7 -12.8 c 1.8 -5.7 -6.8 -7.7 -10.2 -14.1 c -3.3 -6.3 -10.2 -9.8 -18 -10.2 c -7.8 -0.5 -8.4 -2.7 -13.9 2.2 c -5.5 4.9 -22.1 3 -26.6 0.3 c -4.4 -2.7 2.8 -11 10.3 -17.9 c 7.5 -7 14.8 -0.7 23.4 -7.2 c 8.7 -6.5 2 -10.6 -2.3 -13.9 c -4.2 -3.3 -3.9 -8.5 5.5 -17.5 c 9.4 -8.9 14.9 -3.3 15.7 2.9 c 0.7 6.2 5.8 11.1 12.2 13.8 c 6.4 2.7 6.7 -2.5 10.4 -12 c 3.6 -9.5 10 -12.8 20 -12.9 c 10 -0.2 26.6 -0.3 34.1 -3.2 c 7.5 -3 15.9 4.3 18.8 11.9 c 3 7.5 13.4 14.2 24.6 20.9 c 3.2 1.9 6.4 1.7 9.6 0.6 C 754.3 315.7 756.2 376.3 737.6 435.4 z" stroke-linecap="round" />
</g>
		<g transform="matrix(1 0 0 1 124.85 56.14)" id="XMLID_58_"  >
<path style="stroke: rgb(0,0,0); stroke-width: 0.1; stroke-dasharray: none; stroke-linecap: butt; stroke-dashoffset: 0; stroke-linejoin: miter; stroke-miterlimit: 4; fill: rgb(19,176,191); fill-rule: nonzero; opacity: 1;"  transform=" translate(-624.85, -556.14)" d="M 637.2 544.4 c -5.9 -3.6 -6.2 -1.3 -12 2.2 c -5.7 3.5 -13.5 7 -14.6 12.6 c -1.1 5.6 -3.2 12.2 2.8 10.1 c 6 -2.1 6.3 -7.3 13.7 -7.6 C 634.5 561.5 646 549.9 637.2 544.4 z" stroke-linecap="round" />
</g>
		<g transform="matrix(1 0 0 1 23.74 -94.56)" id="XMLID_503_"  >
<path style="stroke: rgb(0,0,0); stroke-width: 0.1; stroke-dasharray: none; stroke-linecap: butt; stroke-dashoffset: 0; stroke-linejoin: miter; stroke-miterlimit: 4; fill: rgb(150,199,251); fill-rule: nonzero; opacity: 1;"  transform=" translate(-523.74, -405.44)" d="M 254.2 565.7 c 118.7 118.7 311.1 118.7 429.7 0 c 118.7 -118.7 118.7 -311.1 0 -429.7 l 19.6 -19.6 c 136.6 136.6 149.6 345.2 13 481.9 c -136.7 136.7 -345.1 123.5 -481.7 -13.1 L 254.2 565.7 z" stroke-linecap="round" />
</g>
		<g transform="matrix(1 0 0 1 -66.35 -184.55)" id="XMLID_509_"  >
<path style="stroke: rgb(0,0,0); stroke-width: 0.1; stroke-dasharray: none; stroke-linecap: butt; stroke-dashoffset: 0; stroke-linejoin: miter; stroke-miterlimit: 4; fill: rgb(186,219,248); fill-rule: nonzero; opacity: 0.2;"  transform=" translate(-433.65, -315.45)" d="M 680 280.1 c 0 155.6 -126.1 281.7 -281.7 281.7 c -59.7 0 -115.1 -18.6 -160.7 -50.4 c -31.7 -45.6 -50.3 -100.9 -50.3 -160.6 c 0 -155.5 126.1 -281.7 281.7 -281.7 c 59.7 0 115.2 18.6 160.8 50.4 C 661.4 165.2 680 220.5 680 280.1 z" stroke-linecap="round" />
</g>
</g>
</g>
</svg>